<?xml version="1.0" encoding="utf-8"?>
<!-- Generator: Adobe Illustrator 19.1.0, SVG Export Plug-In . SVG Version: 6.00 Build 0)  -->
<svg version="1.1" id="Layer_1" xmlns="http://www.w3.org/2000/svg" xmlns:xlink="http://www.w3.org/1999/xlink" x="0px" y="0px"
	 viewBox="0 0 64 64" enable-background="new 0 0 64 64" xml:space="preserve">
<g id="Two-photocards">
	<circle cx="12.7825375" cy="27.0780945" r="2.2317197"/>
	<path d="M63.9530334,42.5188942L57.299736,3.5979936c-0.1445007-0.8457-0.6094017-1.5849998-1.3096008-2.0811
		c-0.7012024-0.4970001-1.5536995-0.6923-2.3983994-0.5439001L18.424736,6.9856939
		c-1.7324009,0.2948999-2.9120951,1.9471998-2.6299009,3.6815996l0.7699003,4.7400999L2.6708355,17.7825928
		c-1.7450999,0.2988014-2.9228997,1.962801-2.6239998,3.7089005l6.6533003,38.9131012
		c0.2675996,1.5634995,1.6289001,2.6708984,3.164,2.6708984c0.1796999,0,0.3613997-0.0155983,0.5439997-0.0467987
		l35.1503983-6.0088005c1.746109-0.2998009,2.922802-1.9639015,2.6240005-3.7080002l-0.7961998-4.657299l13.9524002-2.4305992
		C63.0790329,45.9211922,64.2518311,44.2580948,63.9530334,42.5188942z M45.2206421,55.0491943l-35.1504059,6.0086975
		c-0.6571999,0.1124001-1.2860994-0.3319969-1.3993998-0.9911995L2.0175357,21.1536942
		c-0.1123-0.6592007,0.3319998-1.2872009,0.9912-1.4004002l35.1503983-6.0088005
		c0.0683022-0.0116997,0.1376991-0.0176001,0.2070007-0.0176001c0.2490005,0,0.4911995,0.0770998,0.6991997,0.2236004
		c0.2636986,0.1865997,0.4394989,0.4658003,0.4940987,0.7841997v0.0010004l6.652401,38.9130974
		C46.3241348,54.3069954,45.8798332,54.935894,45.2206421,55.0491943z M23.089735,13.3401937
		c-0.0195007-0.1553001,0.0849991-0.2979002,0.2383003-0.3241997l27.6093998-4.7198
		c0.1014977-0.0146008,0.1718979,0.0176001,0.2178001,0.0497999c0.0438995,0.0312996,0.1004982,0.0899,0.1180992,0.1884995
		l1.3394012,7.8324995l-6.6968002-3.2425995c-0.4316025-0.2070999-0.9501991-0.0820999-1.2382965,0.3037004l-2.6935043,3.6260996
		l-0.4538994-2.6554003c-0.1435966-0.8456993-0.6094017-1.5849991-1.3105965-2.0810995
		c-0.7002029-0.4961004-1.5478058-0.6904001-2.3984032-0.5439005l-14.6317005,2.5012007
		c-0.0007-0.0380001,0.0126991-0.073,0.0076008-0.1115999L23.089735,13.3401937z M42.4349327,19.6913929
		c0.074707-0.0562,0.1568031-0.1006985,0.2154007-0.1792984l3.1396027-4.2266006l6.6444969,3.2178001
		c0.1816025,0.0872002,0.3717995,0.0973988,0.5563011,0.0743999l2.0354996,11.9041004
		c0.0264053,0.1561985-0.0741997,0.3027-0.2313995,0.3330002l-10.1167984,1.9978008L42.4349327,19.6913929z M60.9950333,44.2532921
		l-13.945797,2.4294014l-2.0339012-11.8974991l10.1661987-2.0074997c1.2294998-0.2411995,2.027401-1.397501,1.8153992-2.6328011
		l-3.7528992-21.9473c-0.1025009-0.6034999-0.4346008-1.1308999-0.9336014-1.4843998
		c-0.4979973-0.3525-1.1044998-0.4902-1.7098999-0.3877001l-27.6093979,4.7198
		c-1.2167988,0.2088995-2.0439987,1.3310003-1.8848,2.5527l0.1084003,0.8270998
		c0.0086002,0.0646,0.0401993,0.1176996,0.0597992,0.1772003l-2.7378941,0.4680996l-0.7672043-4.7243996
		c-0.1074009-0.6543007,0.3379002-1.2772999,0.9922047-1.3896008l35.1688919-6.0126996
		c0.3144989-0.0537,0.6386986,0.0176001,0.9034004,0.2051001c0.2645988,0.1875,0.4403992,0.4668,0.4950981,0.7871001
		l6.6533012,38.919899C62.0946388,43.5120926,61.6522331,44.1389923,60.9950333,44.2532921z"/>
	<path d="M34.8300362,17.1262932L7.2704353,21.8371944c-1.2451,0.2129002-2.0839996,1.3994999-1.8710999,2.6445999
		l3.7471004,21.914999c0.1904001,1.1142998,1.1610994,1.9043007,2.2567997,1.9043007
		c0.1279001,0,0.2567997-0.0107002,0.3866997-0.0331993l27.5606003-4.7108994
		c1.2451057-0.2129021,2.0838966-1.3985023,1.8711052-2.642601l-3.7461052-21.9169998
		C37.2635345,17.753294,36.0741348,16.913393,34.8300362,17.1262932z M7.6073356,23.8078938l27.5595989-4.7108994
		c0.0166016-0.0019016,0.0331993-0.0039005,0.0498009-0.0039005c0.1395988,0,0.2635994,0.1005993,0.2880974,0.2421989
		l1.3388062,7.8327007l-6.6972046-3.2428989c-0.4414005-0.2138004-0.9697952-0.0771008-1.2520008,0.3223l-5.7655983,8.1436005
		l-5.5391006-2.464901c-0.3652-0.1631012-0.799799-0.0918007-1.0937004,0.1875l-6.9772997,6.5974998L7.3700356,24.1438942
		C7.3436403,23.985693,7.4501352,23.8352928,7.6073356,23.8078938z M39.0126419,41.5862923l-27.5596066,4.7109032
		c-0.1542997,0.0312996-0.3086004-0.080101-0.3359003-0.2383003L9.8920355,38.893692
		c0.1728001-0.0373001,0.3402996-0.1040993,0.4779997-0.2341995l7.0156059-6.6348l5.6796932,2.527401
		c0.4336014,0.1903992,0.9473057,0.0527,1.2227001-0.3358994l5.7490005-8.1211014l6.6279011,3.2089005
		c0.1814003,0.0869999,0.3717995,0.0970001,0.5564995,0.0740013l2.0294991,11.8732986
		C39.2772331,41.408493,39.1708336,41.5588951,39.0126419,41.5862923z"/>
</g>
<g>
</g>
<g>
</g>
<g>
</g>
<g>
</g>
<g>
</g>
<g>
</g>
<g>
</g>
<g>
</g>
<g>
</g>
<g>
</g>
<g>
</g>
<g>
</g>
<g>
</g>
<g>
</g>
<g>
</g>
</svg>
