<?xml version="1.0" encoding="UTF-8" standalone="no"?>
<svg
   xmlns:dc="http://purl.org/dc/elements/1.1/"
   xmlns:cc="http://creativecommons.org/ns#"
   xmlns:rdf="http://www.w3.org/1999/02/22-rdf-syntax-ns#"
   xmlns:svg="http://www.w3.org/2000/svg"
   xmlns="http://www.w3.org/2000/svg"
   xmlns:sodipodi="http://sodipodi.sourceforge.net/DTD/sodipodi-0.dtd"
   xmlns:inkscape="http://www.inkscape.org/namespaces/inkscape"
   sodipodi:docname="icon-gallery.svg"
   inkscape:version="1.0 (4035a4fb49, 2020-05-01)"
   id="svg846"
   version="1.1"
   viewBox="0 0 4.2333332 4.2333335"
   height="16"
   width="16">
  <defs
     id="defs840" />
  <sodipodi:namedview
     inkscape:window-maximized="1"
     inkscape:window-y="-9"
     inkscape:window-x="-9"
     inkscape:window-height="1001"
     inkscape:window-width="1920"
     units="px"
     showgrid="false"
     inkscape:document-rotation="0"
     inkscape:current-layer="layer1"
     inkscape:document-units="mm"
     inkscape:cy="14.807089"
     inkscape:cx="62.131287"
     inkscape:zoom="5.6"
     inkscape:pageshadow="2"
     inkscape:pageopacity="0.0"
     borderopacity="1.0"
     bordercolor="#666666"
     pagecolor="#ffffff"
     id="base" />
  <metadata
     id="metadata843">
    <rdf:RDF>
      <cc:Work
         rdf:about="">
        <dc:format>image/svg+xml</dc:format>
        <dc:type
           rdf:resource="http://purl.org/dc/dcmitype/StillImage" />
        <dc:title></dc:title>
      </cc:Work>
    </rdf:RDF>
  </metadata>
  <g
     id="layer1"
     inkscape:groupmode="layer"
     inkscape:label="Layer 1">
    <path
       d="M 2.3116451,1.8172779 A 0.36318129,0.36318129 0 0 0 1.9035703,1.8813393 0.36368571,0.36368571 0 0 0 1.4954955,1.8172779 0.35309293,0.35309293 0 0 0 1.2760735,2.1446451 c -0.00553,0.2708734 0.2320331,0.5644448 0.6053031,0.748053 a 0.05044185,0.05044185 0 0 0 0.04439,0 C 2.2990345,2.7090899 2.5366156,2.4155185 2.5310674,2.1446451 A 0.35309293,0.35309293 0 0 0 2.3116451,1.8172779 Z M 1.9035703,2.7908058 C 1.5343359,2.6021529 1.372923,2.3327935 1.3769576,2.1466636 a 0.25220924,0.25220924 0 0 1 0.1593961,-0.2370772 0.30265109,0.30265109 0 0 1 0.1205558,-0.027239 0.26582853,0.26582853 0 0 1 0.2073162,0.1049197 0.05044185,0.05044185 0 0 0 0.041365,0.020681 0.05851255,0.05851255 0 0 0 0.040855,-0.020681 0.26381086,0.26381086 0 0 1 0.3263589,-0.076671 0.25220924,0.25220924 0 0 1 0.1593959,0.2370767 C 2.4342385,2.3327938 2.2722998,2.6021531 1.9035703,2.7908058 Z M 4.1114104,1.7491816 a 0.05044185,0.05044185 0 0 0 -0.050442,-0.00303 L 3.6922382,1.9166493 H 3.3729419 V 1.7996242 A 0.39142872,0.39142872 0 0 0 2.9820176,1.4086998 H 2.8478421 A 0.74855701,0.74855701 0 1 0 1.768891,0.56632118 0.6209391,0.6209391 0 1 0 0.91137893,1.4086998 H 0.86951563 A 0.39142872,0.39142872 0 0 0 0.47859169,1.7996242 V 1.973144 L 0.16181712,1.8863847 a 0.05044185,0.05044185 0 0 0 -0.0438801,0.00858 0.05044185,0.05044185 0 0 0 -0.0191697,0.041867 v 0.696098 a 0.05044185,0.05044185 0 0 0 0.0196685,0.040353 0.05044185,0.05044185 0 0 0 0.0307713,0.010084 0.05800813,0.05800813 0 0 0 0.0131196,0 L 0.47960656,2.5976103 V 2.7716366 A 0.3909243,0.3909243 0 0 0 0.87053053,3.1620567 H 1.8309432 L 1.1984025,4.0972485 a 0.0512227,0.0512227 0 0 0 0.083738,0.059017 L 1.9257782,3.1978702 2.570425,4.1562657 a 0.05044185,0.05044185 0 0 0 0.070115,0.013116 0.05044185,0.05044185 0 0 0 0.013116,-0.06961 L 2.0210999,3.1600412 H 2.9825222 A 0.3909243,0.3909243 0 0 0 3.3729419,2.7696214 V 2.6525963 h 0.3192967 l 0.3707475,0.1704935 a 0.05346836,0.05346836 0 0 0 0.021186,0.00454 0.05044185,0.05044185 0 0 0 0.027239,-0.00808 0.05044185,0.05044185 0 0 0 0.023203,-0.042372 V 1.7920581 A 0.05044185,0.05044185 0 0 0 4.1114104,1.7491816 Z M 2.4942446,0.10124621 A 0.64817772,0.64817772 0 1 1 1.8465718,0.74942398 0.64868216,0.64868216 0 0 1 2.4942446,0.10124621 Z M 0.7101162,0.8775465 A 0.52106424,0.52106424 0 1 1 1.2306766,1.3970973 0.52106424,0.52106424 0 0 1 0.7101162,0.8775465 Z M 1.8198371,1.0742694 A 0.74805259,0.74805259 0 0 0 2.1401428,1.4102122 H 1.5499731 A 0.62497449,0.62497449 0 0 0 1.8203413,1.0727561 Z M 0.19964484,2.5668441 V 2.0023995 l 0.27995305,0.075663 V 2.4916853 Z M 3.2725626,2.7686113 A 0.29004062,0.29004062 0 0 1 2.9830263,3.0581475 H 0.87001763 A 0.29054504,0.29054504 0 0 1 0.57997664,2.7686113 V 1.7996234 A 0.29054504,0.29054504 0 0 1 0.87001763,1.5095828 H 2.9820176 a 0.29054504,0.29054504 0 0 1 0.29004,0.2900406 V 2.7696199 Z M 3.3734455,2.0165233 H 3.653398 V 2.551711 H 3.3729419 Z M 4.0332254,2.6984972 3.7532729,2.5693658 V 1.9993732 l 0.2799525,-0.128627 z"
       id="path937-6"
       style="stroke:#000000;stroke-width:0.109143;stroke-miterlimit:4;stroke-dasharray:none;stroke-opacity:1"
       inkscape:export-xdpi="300"
       inkscape:export-ydpi="300" />
  </g>
</svg>
