<?xml version="1.0" encoding="UTF-8" standalone="no"?>
<svg
   xmlns:dc="http://purl.org/dc/elements/1.1/"
   xmlns:cc="http://creativecommons.org/ns#"
   xmlns:rdf="http://www.w3.org/1999/02/22-rdf-syntax-ns#"
   xmlns:svg="http://www.w3.org/2000/svg"
   xmlns="http://www.w3.org/2000/svg"
   xmlns:sodipodi="http://sodipodi.sourceforge.net/DTD/sodipodi-0.dtd"
   xmlns:inkscape="http://www.inkscape.org/namespaces/inkscape"
   sodipodi:docname="icon-date.svg"
   inkscape:version="1.0 (4035a4fb49, 2020-05-01)"
   id="svg846"
   version="1.1"
   viewBox="0 0 4.2333332 4.2333335"
   height="16"
   width="16">
  <defs
     id="defs840" />
  <sodipodi:namedview
     inkscape:window-maximized="1"
     inkscape:window-y="-9"
     inkscape:window-x="-9"
     inkscape:window-height="1001"
     inkscape:window-width="1920"
     units="px"
     showgrid="false"
     inkscape:document-rotation="0"
     inkscape:current-layer="layer1"
     inkscape:document-units="mm"
     inkscape:cy="14.807089"
     inkscape:cx="62.131287"
     inkscape:zoom="5.6"
     inkscape:pageshadow="2"
     inkscape:pageopacity="0.0"
     borderopacity="1.0"
     bordercolor="#666666"
     pagecolor="#ffffff"
     id="base" />
  <metadata
     id="metadata843">
    <rdf:RDF>
      <cc:Work
         rdf:about="">
        <dc:format>image/svg+xml</dc:format>
        <dc:type
           rdf:resource="http://purl.org/dc/dcmitype/StillImage" />
        <dc:title></dc:title>
      </cc:Work>
    </rdf:RDF>
  </metadata>
  <g
     id="layer1"
     inkscape:groupmode="layer"
     inkscape:label="Layer 1">
    <g
       id="g1046"
       transform="matrix(0.05702675,0,0,0.05702675,-0.73214317,-0.73467299)"
       style="stroke-width:1.49015;stroke-miterlimit:4;stroke-dasharray:none"
       inkscape:export-xdpi="238"
       inkscape:export-ydpi="238">
      <path
         id="path1029"
         d="M 61.93,44.82 A 10.24,10.24 0 0 0 50,47 10.24,10.24 0 0 0 38.07,44.82 10,10 0 0 0 31.84,54.1 c -0.17,7.9 6.79,16.42 17.72,21.79 a 1,1 0 0 0 0.88,0 C 61.37,70.52 68.33,62 68.16,54.1 A 10,10 0 0 0 61.93,44.82 Z M 50,73.87 C 38.67,68.16 33.72,59.87 33.84,54.14 a 8,8 0 0 1 5,-7.49 9.33,9.33 0 0 1 3.8,-0.86 8.48,8.48 0 0 1 6.5,3.29 1,1 0 0 0 0.82,0.42 v 0 a 1,1 0 0 0 0.81,-0.41 8.33,8.33 0 0 1 10.31,-2.44 8,8 0 0 1 5,7.49 C 66.28,59.88 61.33,68.16 50,73.87 Z M 81.71,20.94 h -5.54 v -3.28 a 1,1 0 1 0 -2,0 v 3.28 H 59.39 v -3.28 a 1,1 0 1 0 -2,0 v 3.28 H 42.61 v -3.28 a 1,1 0 1 0 -2,0 v 3.28 H 25.83 v -3.28 a 1,1 0 1 0 -2,0 v 3.28 h -5.54 a 4.53,4.53 0 0 0 -4.53,4.52 v 53.36 a 4.53,4.53 0 0 0 4.53,4.52 h 54.16 a 1,1 0 0 0 0.38,-0.07 1,1 0 0 0 0.33,-0.22 L 85.94,70.27 a 1,1 0 0 0 0.2,-0.3 v -0.09 a 0.75,0.75 0 0 0 0,-0.26 c 0,0 0,0 0,-0.06 v -44.1 a 4.53,4.53 0 0 0 -4.43,-4.52 z m -63.42,2 h 5.54 v 3.28 a 1,1 0 0 0 2,0 v -3.28 h 14.78 v 3.28 a 1,1 0 0 0 2,0 v -3.28 h 14.78 v 3.28 a 1,1 0 0 0 2,0 v -3.28 h 14.78 v 3.28 a 1,1 0 0 0 2,0 v -3.28 h 5.54 a 2.53,2.53 0 0 1 2.53,2.52 V 36 H 15.76 V 25.46 a 2.53,2.53 0 0 1 2.53,-2.52 z M 15.76,78.82 V 38 H 84.24 V 68.56 H 76 a 4.53,4.53 0 0 0 -4.53,4.52 v 8.26 H 18.29 a 2.53,2.53 0 0 1 -2.53,-2.52 z m 62.38,-3.58 -4.69,4.69 V 73.08 A 2.53,2.53 0 0 1 76,70.56 h 6.84 z"
         style="stroke:#000000;stroke-width:1.84282;stroke-miterlimit:4;stroke-dasharray:none;stroke-opacity:1" />
    </g>
  </g>
</svg>
