<?xml version="1.0" encoding="UTF-8" standalone="no"?>
<svg
   xmlns:dc="http://purl.org/dc/elements/1.1/"
   xmlns:cc="http://creativecommons.org/ns#"
   xmlns:rdf="http://www.w3.org/1999/02/22-rdf-syntax-ns#"
   xmlns:svg="http://www.w3.org/2000/svg"
   xmlns="http://www.w3.org/2000/svg"
   xmlns:sodipodi="http://sodipodi.sourceforge.net/DTD/sodipodi-0.dtd"
   xmlns:inkscape="http://www.inkscape.org/namespaces/inkscape"
   sodipodi:docname="icon-couple.svg"
   inkscape:version="1.0 (4035a4fb49, 2020-05-01)"
   id="svg846"
   version="1.1"
   viewBox="0 0 4.2333332 4.2333335"
   height="16"
   width="16">
  <defs
     id="defs840" />
  <sodipodi:namedview
     inkscape:window-maximized="1"
     inkscape:window-y="-9"
     inkscape:window-x="-9"
     inkscape:window-height="1001"
     inkscape:window-width="1920"
     units="px"
     showgrid="false"
     inkscape:document-rotation="0"
     inkscape:current-layer="layer1"
     inkscape:document-units="mm"
     inkscape:cy="14.807089"
     inkscape:cx="62.131287"
     inkscape:zoom="5.6"
     inkscape:pageshadow="2"
     inkscape:pageopacity="0.0"
     borderopacity="1.0"
     bordercolor="#666666"
     pagecolor="#ffffff"
     id="base" />
  <metadata
     id="metadata843">
    <rdf:RDF>
      <cc:Work
         rdf:about="">
        <dc:format>image/svg+xml</dc:format>
        <dc:type
           rdf:resource="http://purl.org/dc/dcmitype/StillImage" />
        <dc:title />
      </cc:Work>
    </rdf:RDF>
  </metadata>
  <g
     id="layer1"
     inkscape:groupmode="layer"
     inkscape:label="Layer 1">
    <g
       id="g908"
       transform="matrix(0.04284437,0,0,0.04284437,-10.191269,-9.162725)"
       style="stroke:#000000;stroke-opacity:1;stroke-width:2.33402898;stroke-miterlimit:4;stroke-dasharray:none">
      <g
         transform="translate(-25.332219,-52.760375)"
         id="g902"
         style="stroke:#000000;stroke-opacity:1;stroke-width:2.33402898;stroke-miterlimit:4;stroke-dasharray:none">
        <path
           inkscape:export-ydpi="240"
           inkscape:export-xdpi="240"
           style="stroke:#000000;stroke-width:2.33402898;stroke-miterlimit:4;stroke-dasharray:none;stroke-opacity:1"
           id="path916"
           d="m 312.60299,358.54379 a 1.1335207,1.1335207 0 0 1 -0.49875,-0.11338 c -35.69456,-17.53555 -47.98192,-42.3143 -47.65321,-58.2516 0.22671,-10.98383 5.95098,-19.50789 16.13,-23.9853 17.3542,-7.65126 28.80276,3.18519 32.02196,6.80112 3.2192,-3.66127 14.66776,-14.49773 32.02196,-6.80112 v 0 c 10.20168,4.47741 15.86929,13.00147 16.13,23.9853 0.32872,15.86929 -11.95864,40.67072 -47.60787,58.20629 a 1.1335207,1.1335207 0 0 1 -0.54409,0.15868 z m -16.78745,-12.41205 a 121.19604,121.19604 0 0 0 16.78745,10.02033 c 13.84029,-6.86915 24.03064,-14.81512 31.23983,-22.85179 -1.45091,-0.66877 -2.8678,-1.2242 -3.94465,-1.6096 a 1.1335207,1.1335207 0 0 1 -2.14235,0.69145 10.609754,10.609754 0 0 1 -0.58944,-5.18019 9.5895851,9.5895851 0 0 1 -4.29604,1.13352 9.3968871,9.3968871 0 0 1 -4.31872,-1.20153 10.64376,10.64376 0 0 1 -0.56675,5.22553 1.1335207,1.1335207 0 0 1 -2.1537,-0.70278 c -3.6386,1.29221 -7.70794,3.2872 -9.54424,5.28221 -0.15869,0.20403 -0.30605,0.39673 -0.47607,0.57809 a 2.5504217,2.5504217 0 0 0 -0.52143,1.43957 0.31738583,0.31738583 0 0 1 0,0.10202 1.1335214,1.1335214 0 0 1 -2.26704,0 c 0,-2.73178 -7.0845,-5.81496 -12.58207,-7.31121 v 3.57058 a 0.90681662,0.90681662 0 0 1 -0.068,0.41941 v 0 0 l -4.024,9.78228 a 1.1335207,1.1335207 0 0 1 -0.53276,0.61213 z m -4.46607,-3.40057 c 0.90683,0.74813 1.85898,1.47358 2.83381,2.26706 a 0.9408222,0.9408222 0 0 1 0.068,-0.23803 l 3.61593,-8.93216 -4.69278,-2.67511 -4.68144,2.67511 z m -9.9523,-9.37421 a 83.461127,83.461127 0 0 0 6.17768,6.16635 l -1.53026,-3.74062 v 0 a 1.2128672,1.2128672 0 0 1 -0.0793,-0.44207 v -3.50259 c -0.97483,0.27206 -2.68644,0.78214 -4.56808,1.5076 z m 19.04315,-3.8653 c 2.48241,0.6461 10.49639,2.94714 13.60224,6.64242 v -0.068 l 0.11335,-0.1247 0.18137,-0.2267 c 3.09451,-4.00133 3.28721,-15.40455 3.08318,-20.16533 a 7.2772036,7.2772036 0 0 1 -2.84514,-5.25953 8.2293604,8.2293604 0 0 1 0.91815,-4.74946 4.9761561,4.9761561 0 0 1 1.97232,-1.961 c -0.0793,-2.45973 0.18136,-8.13867 3.8313,-12.25335 a 13.080829,13.080829 0 0 1 2.43707,-2.10834 6.5177443,6.5177443 0 0 1 1.26955,-3.40058 1.0655094,1.0655094 0 0 1 0.71411,-0.41939 12.468729,12.468729 0 0 0 6.33639,-3.24187 1.1335207,1.1335207 0 0 1 0.81613,-0.35139 v 0 a 1.1335207,1.1335207 0 0 1 0.8048,0.35139 12.706768,12.706768 0 0 0 6.33638,3.2872 1.1335207,1.1335207 0 0 1 0.72546,0.41941 6.4837386,6.4837386 0 0 1 1.2582,3.40056 12.729438,12.729438 0 0 1 2.43707,2.10835 c 3.68394,4.14868 3.92198,9.88431 3.84263,12.25336 a 5.1348489,5.1348489 0 0 1 1.91566,1.98366 8.3200423,8.3200423 0 0 1 0.90681,4.74945 7.2205271,7.2205271 0 0 1 -2.8338,5.2482 75.322457,75.322457 0 0 0 0.45338,11.74328 c 7.08453,-9.86163 9.92967,-19.48522 9.77098,-27.00047 -0.20404,-10.05433 -5.45223,-17.85295 -14.73577,-21.95629 -18.88445,-8.32005 -30.08364,7.06183 -30.18566,7.22053 a 1.1335207,1.1335207 0 0 1 -0.92948,0.47607 v 0 a 1.1335207,1.1335207 0 0 1 -0.91815,-0.47607 c -0.46475,-0.64611 -11.33522,-15.51791 -30.197,-7.22053 -9.31754,4.10334 -14.56574,11.90196 -14.73577,21.95629 -0.18136,8.60343 3.55926,19.94997 13.10351,31.26251 a 54.408996,54.408996 0 0 1 6.13233,-2.05168 v -1.13351 a 1.1335207,1.1335207 0 0 1 0.51009,-1.04285 1.1335207,1.1335207 0 0 1 1.13353,0 l 5.54291,3.17386 5.55425,-3.17386 a 1.1335207,1.1335207 0 0 1 1.13352,0 1.1335207,1.1335207 0 0 1 0.55543,0.98617 z m -4.95349,2.35773 2.68644,1.54158 v -3.08318 z m -7.26587,-1.5416 v 3.08318 l 2.69778,-1.54158 z m 31.57989,-12.46872 c 0,3.64993 -0.1587,9.99764 -1.56426,14.82644 a 43.073788,43.073788 0 0 1 8.13868,-3.54792 14.032987,14.032987 0 0 0 -0.41941,-3.69527 21.128826,21.128826 0 0 1 -5.74695,-7.53792 z m 19.55322,11.3352 a 50.158292,50.158292 0 0 1 6.03034,2.42574 c 0.49875,-0.5781 0.96349,-1.13353 1.42824,-1.74563 a 67.285792,67.285792 0 0 1 -0.87281,-11.95864 h -0.40807 a 20.856782,20.856782 0 0 1 -5.79229,7.61725 14.951139,14.951139 0 0 0 -0.38541,3.59326 z m -17.00281,-12.03799 c 2.48241,5.42956 7.32255,9.06816 10.54175,9.06816 3.2192,0 8.01399,-3.40056 10.5304,-9.06816 a 2.8904779,2.8904779 0 0 1 0.35141,-4.48874 1.0541743,1.0541743 0 0 1 0,-0.62344 c -1.13353,-4.23937 -3.49125,-4.73812 -6.68778,-5.42956 -2.76579,-0.58944 -6.08701,-1.30355 -8.81879,-4.88548 a 10.609754,10.609754 0 0 1 -7.17519,7.77595 15.517899,15.517899 0 0 0 0.82747,2.26704 1.1335207,1.1335207 0 0 1 0.068,0.85014 2.9018131,2.9018131 0 0 1 1.24687,2.36906 2.8678074,2.8678074 0 0 1 -0.90681,2.09701 z m 22.89713,-1.48492 a 0.6347716,0.6347716 0 0 0 0.78212,-0.49874 0.35139141,0.35139141 0 0 1 0,-0.11335 v 0 a 0.6121012,0.6121012 0 0 0 -1.21286,0 0.60076602,0.60076602 0 0 0 0.3741,0.56675 z m -25.50422,-0.49874 a 0.6121012,0.6121012 0 0 0 0.63477,0.52141 h 0.13603 l 0.20403,-0.068 a 0.60076602,0.60076602 0 0 0 0.24937,-0.4874 0.63172871,0.63172871 0 0 0 -1.24687,-0.20404 v 0.15869 z m -1.85898,-8.95482 a 3.3098807,3.3098807 0 0 0 -0.34005,0.51009 6.1210121,6.1210121 0 0 0 -0.63478,3.40056 5.3842235,5.3842235 0 0 0 1.26955,3.03784 2.9131484,2.9131484 0 0 1 1.4509,-0.90682 50.679712,50.679712 0 0 1 -1.76829,-6.10968 z m 28.25868,6.07567 a 2.8678074,2.8678074 0 0 1 1.45091,0.90682 5.3162123,5.3162123 0 0 0 1.28087,-3.10585 6.0303303,6.0303303 0 0 0 -0.63474,-3.40056 3.3098807,3.3098807 0 0 0 -0.34007,-0.51009 48.378665,48.378665 0 0 1 -1.77962,6.04168 z m -18.63508,-15.12116 a 1.1335207,1.1335207 0 0 1 1.02017,0.63477 c 2.4824,5.16885 5.6676,5.84897 9.06816,6.57442 2.74312,0.57809 5.54292,1.19019 7.33388,4.36406 0.36275,-1.32623 0.71412,-2.7658 0.94082,-3.76329 a 1.1335207,1.1335207 0 0 1 -0.29474,-0.86148 1.1335207,1.1335207 0 0 1 0.49874,-0.83881 c 0,-2.10834 -0.23803,-7.05049 -3.28722,-10.47373 -2.26703,-2.48241 -5.54291,-3.74062 -9.86162,-3.74062 -4.31872,0 -7.65127,1.25821 -9.86164,3.74062 -3.03778,3.40056 -3.32117,8.30871 -3.28716,10.47373 a 1.1335207,1.1335207 0 0 1 0.4874,0.83881 1.1335207,1.1335207 0 0 1 -0.29471,0.87281 c 0.14736,0.60077 0.32873,1.4169 0.55543,2.26704 1.31488,-0.3854 5.90564,-2.26704 5.90564,-8.96614 a 1.1335207,1.1335207 0 0 1 0.88415,-1.13352 0.92948703,0.92948703 0 0 1 0.1927,0.0114 z m -0.95216,-9.60093 -0.15869,0.28338 a 20.403373,20.403373 0 0 1 12.93347,0 c 0,-0.0907 -0.0907,-0.1927 -0.14734,-0.28338 a 14.611083,14.611083 0 0 1 -6.31373,-3.08317 14.73577,14.73577 0 0 1 -6.31371,3.08317 z m -33.35952,40.80675 c -5.58825,0 -10.73443,-4.65876 -13.23952,-11.93597 a 6.8011243,6.8011243 0 0 1 -5.33888,-6.14368 7.6739354,7.6739354 0 0 1 1.13352,-4.80613 5.5315812,5.5315812 0 0 1 2.00634,-1.89299 c -0.1927,-2.6751 -0.20404,-9.24952 3.75195,-13.84028 2.66376,-3.09451 6.60842,-4.6701 11.68659,-4.6701 5.07818,0 9.06817,1.57559 11.69794,4.6701 3.97866,4.61343 3.94465,11.22185 3.75196,13.84028 a 5.6676037,5.6676037 0 0 1 2.01766,1.927 7.7419468,7.7419468 0 0 1 1.13352,4.80612 7.1751862,7.1751862 0 0 1 -2.18769,4.53408 5.8036263,5.8036263 0 0 1 -3.15119,1.62094 c -2.52775,7.23187 -7.66261,11.89063 -13.2622,11.89063 z M 280.7284,314.18912 a 1.1335207,1.1335207 0 0 1 1.13351,0.79347 c 2.09701,6.74445 6.55175,11.1085 11.3352,11.1085 4.78346,0 9.22687,-4.36405 11.33522,-11.1085 a 1.1335207,1.1335207 0 0 1 1.13352,-0.78213 3.2645397,3.2645397 0 0 0 2.26703,-1.0315 4.9534857,4.9534857 0 0 0 1.49625,-3.09452 5.4182292,5.4182292 0 0 0 -0.78212,-3.40056 3.5252496,3.5252496 0 0 0 -0.49876,-0.63478 l -0.068,0.17003 a 39.967941,39.967941 0 0 1 -1.98366,6.55176 1.1335207,1.1335207 0 1 1 -2.02899,-1.00884 30.32168,30.32168 0 0 0 1.53024,-4.94214 c -7.68527,-0.27206 -13.80627,-2.66378 -18.24968,-7.12985 a 11.221855,11.221855 0 0 1 -6.46106,8.25203 23.928624,23.928624 0 0 0 1.24688,3.81996 1.1335207,1.1335207 0 0 1 -0.51009,1.51892 1.1335207,1.1335207 0 0 1 -1.51891,-0.51008 40.20598,40.20598 0 0 1 -2.02901,-6.74445 3.9559874,3.9559874 0 0 0 -0.53275,0.65744 5.4068939,5.4068939 0 0 0 -0.77079,3.40056 c 0.23804,2.56177 2.42573,4.25071 3.80862,4.12602 z m -0.53277,-9.22685 c 0.0567,0.23803 0.11336,0.49874 0.18137,0.77079 a 9.1815178,9.1815178 0 0 0 5.02149,-8.73945 1.1335207,1.1335207 0 0 1 2.02901,-0.70278 c 4.11468,5.23687 10.31503,8.01399 18.45371,8.2747 a 0.92948703,0.92948703 0 0 1 -0.0567,-0.46474 1.1335207,1.1335207 0 0 1 0.53275,-0.87281 c 0.14736,-2.34639 0.12469,-8.17268 -3.2192,-12.04933 -2.26704,-2.57309 -5.57692,-3.87664 -9.97498,-3.87664 -4.39807,0 -7.74195,1.30355 -9.96364,3.87664 -3.33255,3.86531 -3.40057,9.6576 -3.2192,12.04933 a 1.1335207,1.1335207 0 0 1 0.53275,0.87281 1.1335207,1.1335207 0 0 1 -0.26071,0.86148 z" />
      </g>
      <g
         id="g987"
         transform="matrix(6.6113906,0,0,6.6113906,64.334685,119.19419)"
         style="stroke:#000000;stroke-opacity:1;stroke-width:0.35303148;stroke-miterlimit:4;stroke-dasharray:none" />
    </g>
  </g>
</svg>
