<?xml version="1.0" encoding="UTF-8" standalone="no"?>
<svg
   xmlns:dc="http://purl.org/dc/elements/1.1/"
   xmlns:cc="http://creativecommons.org/ns#"
   xmlns:rdf="http://www.w3.org/1999/02/22-rdf-syntax-ns#"
   xmlns:svg="http://www.w3.org/2000/svg"
   xmlns="http://www.w3.org/2000/svg"
   xmlns:sodipodi="http://sodipodi.sourceforge.net/DTD/sodipodi-0.dtd"
   xmlns:inkscape="http://www.inkscape.org/namespaces/inkscape"
   sodipodi:docname="icon-chat.svg"
   inkscape:version="1.0 (4035a4fb49, 2020-05-01)"
   id="svg846"
   version="1.1"
   viewBox="0 0 4.2333332 4.2333335"
   height="16"
   width="16">
  <defs
     id="defs840" />
  <sodipodi:namedview
     inkscape:window-maximized="1"
     inkscape:window-y="-9"
     inkscape:window-x="-9"
     inkscape:window-height="1001"
     inkscape:window-width="1920"
     units="px"
     showgrid="false"
     inkscape:document-rotation="0"
     inkscape:current-layer="layer1"
     inkscape:document-units="mm"
     inkscape:cy="14.807089"
     inkscape:cx="62.131287"
     inkscape:zoom="5.6"
     inkscape:pageshadow="2"
     inkscape:pageopacity="0.0"
     borderopacity="1.0"
     bordercolor="#666666"
     pagecolor="#ffffff"
     id="base" />
  <metadata
     id="metadata843">
    <rdf:RDF>
      <cc:Work
         rdf:about="">
        <dc:format>image/svg+xml</dc:format>
        <dc:type
           rdf:resource="http://purl.org/dc/dcmitype/StillImage" />
        <dc:title></dc:title>
      </cc:Work>
    </rdf:RDF>
  </metadata>
  <g
     id="layer1"
     inkscape:groupmode="layer"
     inkscape:label="Layer 1">
    <path
       style="stroke:#000000;stroke-width:0.0888111;stroke-miterlimit:4;stroke-dasharray:none;stroke-opacity:1"
       d="M 3.7464593,4.0471821 A 0.68649191,0.68649191 0 0 1 3.2600785,3.8454036 1.409115,1.409115 0 0 1 2.9432357,3.8809794 c -0.6242355,0 -1.1450799,-0.3952193 -1.2329063,-0.9271809 A 1.8171191,1.8171191 0 0 1 1.2239486,2.907661 0.87159459,0.87159459 0 0 1 0.46575011,3.1600233 0.88938224,0.88938224 0 0 1 0.22672871,3.0855376 0.05558639,0.05558639 0 0 1 0.24284908,2.9804792 0.76375698,0.76375698 0 0 0 0.72700634,2.70755 C 0.29899108,2.4501846 0.04440536,2.0271723 0.04440536,1.5708081 c 0,-0.76375705 0.71484122,-1.38465695 1.59421744,-1.38465695 0.8793769,0 1.5947742,0.6208999 1.5947742,1.38465695 A 1.2312385,1.2312385 0 0 1 3.221169,1.7409026 c 0.5642019,0.1111726 0.967759,0.5480818 0.967759,1.0561413 0,0.352974 -0.1939963,0.67871 -0.522512,0.8821561 a 0.57643088,0.57643088 0 0 0 0.359088,0.1956641 0.05558639,0.05558639 0 0 1 0.047804,0.046693 0.05558639,0.05558639 0 0 1 -0.031129,0.055586 0.66703668,0.66703668 0 0 1 -0.1895496,0.055586 0.68871537,0.68871537 0 0 1 -0.1061695,0.014452 z M 3.2778661,3.7286721 A 0.05558639,0.05558639 0 0 1 3.3189991,3.7470161 0.57587501,0.57587501 0 0 0 3.8192768,3.931563 0.68871537,0.68871537 0 0 1 3.535786,3.6958767 0.05558639,0.05558639 0 0 1 3.527446,3.6514077 0.05558639,0.05558639 0 0 1 3.554684,3.6158317 c 0.3262967,-0.1806548 0.5208489,-0.4863802 0.5208489,-0.817675 0,-0.454697 -0.3657582,-0.8460251 -0.8771532,-0.9449686 A 1.278487,1.278487 0 0 1 3.0004924,2.2906525 h 0.575875 a 0.05558639,0.05558639 0 0 1 0,0.1111726 H 2.9160007 A 1.5008325,1.5008325 0 0 1 2.7103312,2.5985997 h 0.8660362 a 0.05558639,0.05558639 0 0 1 0,0.1111727 H 2.5502424 A 1.7415216,1.7415216 0 0 1 1.821505,2.9493498 c 0.084491,0.4730403 0.5558636,0.8237905 1.1217333,0.8237905 a 1.3012774,1.3012774 0 0 0 0.3212896,-0.044469 0.05558639,0.05558639 0 0 1 0.013342,0 z m -2.83490653,-0.6848243 0.0377994,0.00667 a 0.7620894,0.7620894 0 0 0 0.68260093,-0.2412454 0.05558639,0.05558639 0 0 1 0.055586,-0.016675 1.7142843,1.7142843 0 0 0 0.4191215,0.052251 c 0.7359639,0 1.3485259,-0.4624792 1.4641459,-1.0667033 v 0 a 0.00833796,0.00833796 0 0 1 0,-0.00389 1.1156189,1.1156189 0 0 0 0.018899,-0.2028902 c 0,-0.70205617 -0.6670373,-1.2734844 -1.4836011,-1.2734844 -0.81656436,0 -1.48193342,0.57087225 -1.48193342,1.2729284 0,0.4346854 0.25514179,0.8337956 0.68204525,1.0711498 a 0.05558639,0.05558639 0 0 1 0.027238,0.036131 0.05558639,0.05558639 0 0 1 -0.00834,0.044469 0.88215602,0.88215602 0 0 1 -0.41189548,0.3207337 z M 3.5746974,3.3217795 H 2.2611903 a 0.05558639,0.05558639 0 1 1 0,-0.1111724 h 1.3151746 a 0.05558639,0.05558639 0 0 1 0,0.1111724 z m 0,-0.3079486 H 2.2611903 a 0.05558639,0.05558639 0 0 1 0,-0.1111726 h 1.3151746 a 0.05558639,0.05558639 0 0 1 0,0.1111726 z M 1.6386228,2.4107184 a 0.05558639,0.05558639 0 0 1 -0.023901,-0.00556 C 1.0860943,2.1555761 0.74924061,1.7559098 0.75646689,1.3879279 A 0.47470777,0.47470777 0 0 1 1.0605244,0.94935133 0.51306239,0.51306239 0 0 1 1.6386228,1.0471834 0.51361823,0.51361823 0 0 1 2.2156094,0.94935133 0.47415189,0.47415189 0 0 1 2.520779,1.3884838 c 0.00778,0.367982 -0.3296275,0.767648 -0.8582541,1.017231 a 0.0522512,0.0522512 0 0 1 -0.023902,0.005 z M 1.286205,1.0116089 A 0.45692013,0.45692013 0 0 0 1.1055494,1.0510755 0.36409087,0.36409087 0 0 0 0.86763997,1.3901523 C 0.86263757,1.651964 1.0988792,2.0310634 1.6386228,2.2934311 2.1783668,2.0310634 2.4168322,1.651964 2.4096062,1.3901523 A 0.36242325,0.36242325 0 0 0 2.1722521,1.0510755 0.40411306,0.40411306 0 0 0 1.6830922,1.1622481 0.05558639,0.05558639 0 0 1 1.6386228,1.1844835 v 0 A 0.05558639,0.05558639 0 0 1 1.5941539,1.1622481 0.40466893,0.40466893 0 0 0 1.286205,1.0116089 Z"
       id="path970"
       inkscape:export-xdpi="238.09"
       inkscape:export-ydpi="238.09" />
  </g>
</svg>
